# xmcd
#
# Track frame offsets:
#	150
#	17382
#	38192
#	55817
#	74520
#	88542
#	105652
#	125162
#	141790
#	157882
#	180797
#
# Disc length: 2702 seconds
#
# Revision: 1
# Processed by: cddbd v1.5PL3 Copyright (c) Steve Scherf et al.
# Submitted via: CDex 1.50Beta5
#
DISCID=870a8c0b
DTITLE=What’s Love? - 本気の馬鹿(初回盤)
DYEAR=2002
DGENRE=Rock
TTITLE0=恋の味
TTITLE1=夢もなく はてしなく
TTITLE2=ヘッドライトが唄い出す
TTITLE3=鈍色の街
TTITLE4=バウンス!バウンス!バウンス!
TTITLE5=軋む波間に季節は去り
TTITLE6=引越しをするなら教えてよ
TTITLE7=明日のうた
TTITLE8=トラック・ドライヴィング・ブギ
TTITLE9=正調・恋の味
TTITLE10=知床旅情
EXTD=
EXTT0=
EXTT1=
EXTT2=
EXTT3=
EXTT4=
EXTT5=
EXTT6=
EXTT7=
EXTT8=
EXTT9=
EXTT10=
PLAYORDER=
